<svg height="396" viewBox="0 0 363 396" width="363" xmlns="http://www.w3.org/2000/svg"><g fill="none" fill-rule="evenodd"><path d="m0 0h363v396h-363z" fill="#54bce8"/><g fill="#fff" transform="translate(35.644808 35)"><path d="m.83379667 217 45.09160823 22.3-45.09160823 22.2z"/><path d="m67.2045909 228.8-14.186124 7-45.59825554-22.5 14.18612394-7z"/><path d="m118.882614 203.3-45.5982557 22.5-45.5982556-22.5 45.5982556-22.5z"/><path d="m94.5635442 170.3 45.5982558 22.5-14.186124 7-45.5982557-22.5z"/><path d="m146.748214 144.5v45l-.506647.3-45.598255-22.5z"/><path d="m146.748214 289v45l-145.91441733-72v-45z"/><path d="m146.748214 334 145.914418-72v-45l-145.914418 72z"/><path d="m.83379667 145 45.09160823 22.3-45.09160823 22.2z"/><path d="m67.2045909 156.8-14.186124 7-45.59825554-22.5 14.18612394-7z"/><path d="m118.882614 131.3-45.5982557 22.5-45.5982556-22.5 45.5982556-22.5z"/><path d="m146.748214 72.5v45l-20.772538 10.3-45.5982557-22.5z"/><path d="m146.748214 217v45l-145.91441733-72v-45z"/><path d="m146.748214 262 145.914418-72v-45l-145.914418 72z"/><path d="m.83379667 73 45.09160823 22.3-45.09160823 22.2z"/><path d="m146.748214.5v45l-93.7297471 46.3-45.59825554-22.5z"/><path d="m146.748214 145v45l-145.91441733-72v-45z"/><path d="m146.748214 190 145.914418-72v-45l-145.914418 72z"/></g></g></svg>