<svg enable-background="new 0 0 720 396" viewBox="0 0 720 396" xmlns="http://www.w3.org/2000/svg"><path d="m0 0h720v396h-720z" fill="#54bce8"/><path d="m36 252 44.5 22.3-44.5 22.2z" fill="#fff"/><path d="m101.5 263.8-14 7-45-22.5 14-7z" fill="#fff"/><path d="m152.5 238.3-45 22.5-45-22.5 45-22.5z" fill="#fff"/><path d="m128.5 205.3 45 22.5-14 7-45-22.5z" fill="#fff"/><path d="m180 179.5v45l-.5.3-45-22.5z" fill="#fff"/><path d="m180 324v45l-144-72v-45z" fill="#fff"/><path d="m180 369 144-72v-45l-144 72z" fill="#fff"/><path d="m36 180 44.5 22.3-44.5 22.2z" fill="#fff"/><path d="m101.5 191.8-14 7-45-22.5 14-7z" fill="#fff"/><path d="m152.5 166.3-45 22.5-45-22.5 45-22.5z" fill="#fff"/><path d="m180 107.5v45l-20.5 10.3-45-22.5z" fill="#fff"/><path d="m180 252v45l-144-72v-45z" fill="#fff"/><path d="m180 297 144-72v-45l-144 72z" fill="#fff"/><path d="m36 108 44.5 22.3-44.5 22.2z" fill="#fff"/><path d="m180 35.5v45l-92.5 46.3-45-22.5z" fill="#fff"/><path d="m180 180v45l-144-72v-45z" fill="#fff"/><path d="m180 225 144-72v-45l-144 72z" fill="#fff"/><path d="m342 107.5h369v189h-369z" fill="none"/><g fill="#fff"><path d="m347.9 109.3h15.7c2.4 0 4.5.3 6.5.9 1.9.6 3.6 1.5 5 2.6s2.4 2.5 3.2 4.2c.7 1.6 1.1 3.5 1.1 5.6v.1c0 2.3-.4 4.3-1.3 6s-2.1 3.1-3.6 4.3-3.3 2-5.3 2.6-4.1.9-6.4.9h-10.2v14.8h-4.7zm15.2 22.9c1.7 0 3.3-.2 4.7-.7 1.4-.4 2.6-1.1 3.7-1.9 1-.8 1.8-1.8 2.3-2.9s.8-2.4.8-3.8v-.1c0-3-1-5.3-3.1-6.8s-4.8-2.3-8.2-2.3h-10.6v18.5z" stroke="#fff" stroke-miterlimit="10" stroke-width="4"/><path d="m388 109.3h18.1c2.6 0 4.9.4 6.9 1.1s3.7 1.8 5 3.1c1 1 1.8 2.3 2.4 3.7s.8 2.9.8 4.6v.1c0 1.8-.3 3.3-.8 4.7-.6 1.4-1.3 2.6-2.4 3.6-1 1-2.2 1.9-3.6 2.5-1.4.7-2.9 1.1-4.6 1.4l12.9 17.2h-5.8l-12.1-16.3h-.1-11.9v16.3h-4.8zm17.7 21.4c1.6 0 3-.2 4.3-.6s2.5-1 3.4-1.7 1.7-1.6 2.3-2.7c.5-1.1.8-2.3.8-3.6v-.1c0-2.6-.9-4.6-2.8-6.1s-4.5-2.2-7.9-2.2h-13v17z" stroke="#fff" stroke-miterlimit="10" stroke-width="4"/><path d="m450.9 152c-3.2 0-6.1-.6-8.7-1.7-2.6-1.2-4.9-2.7-6.8-4.7s-3.3-4.3-4.3-6.9-1.5-5.4-1.5-8.3v-.1c0-2.9.5-5.6 1.6-8.3 1-2.6 2.5-5 4.4-6.9 1.9-2 4.1-3.6 6.8-4.7 2.6-1.2 5.6-1.8 8.8-1.8s6.1.6 8.7 1.7c2.6 1.2 4.9 2.7 6.8 4.7s3.3 4.3 4.3 6.9 1.5 5.4 1.5 8.3v.1c0 2.9-.5 5.6-1.6 8.3-1 2.6-2.5 5-4.4 6.9-1.9 2-4.1 3.6-6.8 4.7-2.7 1.2-5.6 1.8-8.8 1.8zm.1-4.4c2.4 0 4.6-.5 6.6-1.3 2-.9 3.8-2.1 5.2-3.7s2.6-3.4 3.4-5.5 1.2-4.3 1.2-6.7v-.1c0-2.4-.4-4.7-1.2-6.8s-2-3.9-3.4-5.5c-1.5-1.6-3.2-2.8-5.3-3.7-2-.9-4.2-1.4-6.6-1.4s-4.6.5-6.6 1.3c-2 .9-3.8 2.1-5.2 3.7s-2.6 3.4-3.4 5.5-1.2 4.3-1.2 6.7v.1c0 2.4.4 4.7 1.2 6.8s2 3.9 3.4 5.5c1.5 1.6 3.2 2.8 5.3 3.7 2 1 4.2 1.4 6.6 1.4z" stroke="#fff" stroke-miterlimit="10" stroke-width="4"/><path d="m482.4 109.3h15.7c2.4 0 4.5.3 6.5.9 1.9.6 3.6 1.5 5 2.6s2.4 2.5 3.2 4.2c.7 1.6 1.1 3.5 1.1 5.6v.1c0 2.3-.4 4.3-1.3 6s-2.1 3.1-3.6 4.3-3.3 2-5.3 2.6-4.1.9-6.4.9h-10.2v14.8h-4.7zm15.1 22.9c1.7 0 3.3-.2 4.7-.7 1.4-.4 2.6-1.1 3.7-1.9 1-.8 1.8-1.8 2.3-2.9s.8-2.4.8-3.8v-.1c0-3-1-5.3-3.1-6.8s-4.8-2.3-8.2-2.3h-10.6v18.5z" stroke="#fff" stroke-miterlimit="10" stroke-width="4"/><path d="m522.5 109.3h30.4v4.3h-25.6v14.4h22.9v4.3h-22.9v14.7h25.9v4.3h-30.7z" stroke="#fff" stroke-miterlimit="10" stroke-width="4"/><path d="m562.7 109.3h18.1c2.6 0 4.9.4 6.9 1.1s3.7 1.8 5 3.1c1 1 1.8 2.3 2.4 3.7s.8 2.9.8 4.6v.1c0 1.8-.3 3.3-.8 4.7-.6 1.4-1.3 2.6-2.4 3.6-1 1-2.2 1.9-3.6 2.5-1.4.7-2.9 1.1-4.6 1.4l12.9 17.2h-5.8l-12.2-16.3h-.1-11.9v16.3h-4.7zm17.7 21.4c1.6 0 3-.2 4.3-.6s2.5-1 3.4-1.7 1.7-1.6 2.3-2.7c.5-1.1.8-2.3.8-3.6v-.1c0-2.6-.9-4.6-2.8-6.1s-4.5-2.2-7.9-2.2h-13v17z" stroke="#fff" stroke-miterlimit="10" stroke-width="4"/><path d="m617.2 113.7h-14.1v-4.4h32.9v4.4h-14.1v37.6h-4.7z" stroke="#fff" stroke-miterlimit="10" stroke-width="4"/><path d="m658.1 134.7-17.5-25.4h5.8l14.1 21 14.3-21h5.5l-17.5 25.3v16.7h-4.7z" stroke="#fff" stroke-miterlimit="10" stroke-width="4"/><path d="m344.7 181.3h5.2l12 35 11.5-35.1h3.9l11.5 35.1 12-35h5l-15 42.3h-4l-11.5-34.1-11.6 34.1h-4z" stroke="#fff" stroke-miterlimit="10" stroke-width="4"/><path d="m414.4 181.3h30.4v4.3h-25.6v14.4h22.8v4.3h-22.9v14.7h25.9v4.3h-30.7v-42z" stroke="#fff" stroke-miterlimit="10" stroke-width="4"/><path d="m454.6 181.3h17.8c2.4 0 4.5.3 6.4 1s3.4 1.6 4.6 2.7c1.8 1.9 2.7 4.1 2.7 6.7v.1c0 1.4-.2 2.6-.6 3.6-.4 1.1-.9 2-1.5 2.8s-1.3 1.4-2.1 2c-.8.5-1.6 1-2.4 1.3 1.2.4 2.4.8 3.5 1.4s2 1.3 2.8 2.1 1.4 1.8 1.9 2.9.7 2.4.7 3.8v.1c0 1.8-.4 3.4-1.1 4.8s-1.7 2.6-3.1 3.6c-1.3 1-2.9 1.7-4.8 2.3-1.9.5-4 .8-6.2.8h-18.6zm17.1 18.7c2.9 0 5.2-.6 7-1.9s2.7-3.1 2.7-5.6v-.1c0-2.1-.8-3.7-2.4-5-1.6-1.2-3.9-1.9-6.9-1.9h-12.7v14.5zm1.7 19c3.2 0 5.7-.7 7.5-2s2.8-3.2 2.8-5.5v-.1c0-2.3-.9-4-2.8-5.3s-4.6-1.9-8.3-1.9h-13.2v14.8z" stroke="#fff" stroke-miterlimit="10" stroke-width="4"/><path d="m347.9 253.3h17.8c2.4 0 4.5.3 6.4 1s3.4 1.6 4.6 2.7c1.8 1.9 2.7 4.1 2.7 6.7v.1c0 1.4-.2 2.6-.6 3.6-.4 1.1-.9 2-1.5 2.8s-1.3 1.4-2.1 2c-.8.5-1.6 1-2.4 1.3 1.2.4 2.4.8 3.5 1.4s2 1.3 2.8 2.1 1.4 1.8 1.9 2.9.7 2.4.7 3.8v.1c0 1.8-.4 3.4-1.1 4.8s-1.7 2.6-3.1 3.6c-1.3 1-2.9 1.7-4.8 2.3-1.9.5-4 .8-6.2.8h-18.6zm17.2 18.7c2.9 0 5.2-.6 7-1.9s2.7-3.1 2.7-5.6v-.1c0-2.1-.8-3.7-2.4-5-1.6-1.2-3.9-1.9-6.9-1.9h-12.7v14.5zm1.6 19c3.2 0 5.7-.7 7.5-2s2.8-3.2 2.8-5.5v-.1c0-2.3-.9-4-2.8-5.3s-4.6-1.9-8.3-1.9h-13.2v14.8z" stroke="#fff" stroke-miterlimit="10" stroke-width="4"/><path d="m408.1 296c-2.6 0-5-.4-7.1-1.2s-4-1.9-5.5-3.5c-1.5-1.5-2.7-3.5-3.6-5.7-.8-2.3-1.3-4.9-1.3-7.9v-24.4h4.7v24.1c0 4.6 1.1 8.1 3.4 10.5s5.4 3.7 9.5 3.7c3.9 0 7-1.2 9.2-3.5 2.3-2.3 3.4-5.8 3.4-10.4v-24.4h4.7v24.1c0 3.1-.4 5.8-1.3 8.1-.8 2.3-2 4.3-3.6 5.8-1.5 1.6-3.4 2.7-5.5 3.5-2 .8-4.4 1.2-7 1.2z" stroke="#fff" stroke-miterlimit="10" stroke-width="4"/><path d="m437.2 253.3h4.7v42h-4.7z" stroke="#fff" stroke-miterlimit="10" stroke-width="4"/><path d="m454.3 253.3h4.7v37.6h23.6v4.4h-28.4v-42z" stroke="#fff" stroke-miterlimit="10" stroke-width="4"/><path d="m491.4 253.3h14.6c3.3 0 6.3.5 9 1.6s5.1 2.5 7.1 4.4 3.5 4.1 4.6 6.6 1.6 5.3 1.6 8.3v.1c0 3-.5 5.7-1.6 8.3s-2.6 4.8-4.6 6.7-4.3 3.4-7.1 4.4c-2.7 1.1-5.8 1.6-9 1.6h-14.6zm14.6 37.6c2.6 0 5-.4 7.2-1.3 2.2-.8 4-2 5.5-3.5s2.7-3.2 3.5-5.3c.8-2 1.2-4.2 1.2-6.5v-.1c0-2.3-.4-4.5-1.2-6.5s-2-3.8-3.5-5.3-3.3-2.7-5.5-3.5c-2.2-.9-4.6-1.3-7.2-1.3h-9.8v33.2h9.8z" stroke="#fff" stroke-miterlimit="10" stroke-width="4"/><path d="m538.3 253.3h30.4v4.3h-25.6v14.4h22.9v4.3h-22.9v14.7h25.9v4.3h-30.7z" stroke="#fff" stroke-miterlimit="10" stroke-width="4"/><path d="m578.5 253.3h18.1c2.6 0 4.9.4 6.9 1.1s3.7 1.8 5 3.1c1 1 1.8 2.3 2.4 3.7s.8 2.9.8 4.6v.1c0 1.8-.3 3.3-.8 4.7-.6 1.4-1.3 2.6-2.4 3.6-1 1-2.2 1.9-3.6 2.5-1.4.7-2.9 1.1-4.6 1.4l12.9 17.2h-5.8l-12.1-16.3h-.1-11.9v16.3h-4.7v-42zm17.7 21.4c1.6 0 3-.2 4.3-.6s2.5-1 3.4-1.7 1.7-1.6 2.3-2.7c.5-1.1.8-2.3.8-3.6v-.1c0-2.6-.9-4.6-2.8-6.1s-4.5-2.2-7.9-2.2h-13v17z" stroke="#fff" stroke-miterlimit="10" stroke-width="4"/></g></svg>