<?xml version="1.0" encoding="UTF-8" standalone="no"?>
<svg width="363px" height="396px" viewBox="0 0 363 396" version="1.1" xmlns="http://www.w3.org/2000/svg" xmlns:xlink="http://www.w3.org/1999/xlink">
    <!-- Generator: Sketch 41.2 (35397) - http://www.bohemiancoding.com/sketch -->
    <title>PropertyWebBuilder Logo-04</title>
    <desc>Created with Sketch.</desc>
    <defs></defs>
    <g id="Page-1" stroke="none" stroke-width="1" fill="none" fill-rule="evenodd">
        <g id="PropertyWebBuilder-Logo-04">
            <rect id="Rectangle-path" fill="#54BCE8" x="0" y="0" width="363" height="396"></rect>
            <g id="Group" transform="translate(35.644808, 35.000000)" fill="#FFFFFF">
                <polygon id="Shape" points="0.833796673 217 45.9254049 239.3 0.833796673 261.5"></polygon>
                <polygon id="Shape" points="67.2045909 228.8 53.0184669 235.8 7.42021136 213.3 21.6063353 206.3"></polygon>
                <polygon id="Shape" points="118.882614 203.3 73.2843583 225.8 27.6861027 203.3 73.2843583 180.8"></polygon>
                <polygon id="Shape" points="94.5635442 170.3 140.1618 192.8 125.975676 199.8 80.3774203 177.3"></polygon>
                <polygon id="Shape" points="146.748214 144.5 146.748214 189.5 146.241567 189.8 100.643312 167.3"></polygon>
                <polygon id="Shape" points="146.748214 289 146.748214 334 0.833796673 262 0.833796673 217"></polygon>
                <polygon id="Shape" points="146.748214 334 292.662632 262 292.662632 217 146.748214 289"></polygon>
                <polygon id="Shape" points="0.833796673 145 45.9254049 167.3 0.833796673 189.5"></polygon>
                <polygon id="Shape" points="67.2045909 156.8 53.0184669 163.8 7.42021136 141.3 21.6063353 134.3"></polygon>
                <polygon id="Shape" points="118.882614 131.3 73.2843583 153.8 27.6861027 131.3 73.2843583 108.8"></polygon>
                <polygon id="Shape" points="146.748214 72.5 146.748214 117.5 125.975676 127.8 80.3774203 105.3"></polygon>
                <polygon id="Shape" points="146.748214 217 146.748214 262 0.833796673 190 0.833796673 145"></polygon>
                <polygon id="Shape" points="146.748214 262 292.662632 190 292.662632 145 146.748214 217"></polygon>
                <polygon id="Shape" points="0.833796673 73 45.9254049 95.3 0.833796673 117.5"></polygon>
                <polygon id="Shape" points="146.748214 0.5 146.748214 45.5 53.0184669 91.8 7.42021136 69.3"></polygon>
                <polygon id="Shape" points="146.748214 145 146.748214 190 0.833796673 118 0.833796673 73"></polygon>
                <polygon id="Shape" points="146.748214 190 292.662632 118 292.662632 73 146.748214 145"></polygon>
            </g>
        </g>
    </g>
</svg>