<?xml version="1.0" encoding="utf-8"?>
<!-- Generator: Adobe Illustrator 21.0.0, SVG Export Plug-In . SVG Version: 6.00 Build 0)  -->
<svg version="1.1" id="Layer_1" xmlns="http://www.w3.org/2000/svg" xmlns:xlink="http://www.w3.org/1999/xlink" x="0px" y="0px"
	 viewBox="0 0 720 396" style="enable-background:new 0 0 720 396;" xml:space="preserve">
<style type="text/css">
	.st0{fill:#54BCE8;}
	.st1{fill:#1F80AA;}
	.st2{fill:none;stroke:#CCCCCC;stroke-miterlimit:10;}
	.st3{fill:#29ABE2;}
	.st4{fill:#DBDADA;stroke:#000000;stroke-miterlimit:10;}
	.st5{fill:#FFFFFF;}
	.st6{fill:#73492C;}
	.st7{fill:#AD6E42;}
	.st8{fill:#7FCDEE;}
	.st9{fill:#62550B;}
	.st10{fill:#006A9C;}
	.st11{fill:none;}
	.st12{fill:url(#SVGID_1_);}
	.st13{fill:#095270;}
	.st14{fill:#FBB03B;}
	.st15{fill:#666666;}
	.st16{fill:url(#SVGID_2_);}
	.st17{fill:none;stroke:#999999;stroke-miterlimit:10;}
	.st18{fill:url(#SVGID_3_);}
	.st19{fill:none;stroke:#000000;stroke-miterlimit:10;}
	.st20{fill:#29ABE2;stroke:#29ABE2;stroke-width:4;stroke-miterlimit:10;}
	.st21{fill:none;stroke:#808080;stroke-miterlimit:10;}
	.st22{fill:#999999;}
	.st23{fill:#B3B3B3;}
	.st24{fill:#B3B3B3;stroke:#B3B3B3;stroke-width:4;stroke-miterlimit:10;}
	.st25{stroke:#000000;stroke-width:4;stroke-miterlimit:10;}
	.st26{fill:#FFFFFF;stroke:#FFFFFF;stroke-width:4;stroke-miterlimit:10;}
	.st27{fill:#B96E16;}
	.st28{fill:#F7931E;}
	.st29{fill:#F9A94B;}
	.st30{fill:#F9A94B;stroke:#F9A94B;stroke-width:3;stroke-miterlimit:10;}
	.st31{fill:#770E12;}
	.st32{fill:#825332;}
	.st33{fill:#938011;}
	.st34{fill:#A08903;}
	.st35{fill:#780207;}
	.st36{opacity:0.5;}
	.st37{fill:#54BCE8;stroke:#54BCE8;stroke-width:4;stroke-miterlimit:10;}
</style>
<rect class="st0" width="720" height="396"/>
<polygon class="st5" points="36,252 80.5,274.3 36,296.5 "/>
<polygon class="st5" points="101.5,263.8 87.5,270.8 42.5,248.3 56.5,241.3 "/>
<polygon class="st5" points="152.5,238.3 107.5,260.8 62.5,238.3 107.5,215.8 "/>
<polygon class="st5" points="128.5,205.3 173.5,227.8 159.5,234.8 114.5,212.3 "/>
<polygon class="st5" points="180,179.5 180,224.5 179.5,224.8 134.5,202.3 "/>
<polygon class="st5" points="180,324 180,369 36,297 36,252 "/>
<polygon class="st5" points="180,369 324,297 324,252 180,324 "/>
<polygon class="st5" points="36,180 80.5,202.3 36,224.5 "/>
<polygon class="st5" points="101.5,191.8 87.5,198.8 42.5,176.3 56.5,169.3 "/>
<polygon class="st5" points="152.5,166.3 107.5,188.8 62.5,166.3 107.5,143.8 "/>
<polygon class="st5" points="180,107.5 180,152.5 159.5,162.8 114.5,140.3 "/>
<polygon class="st5" points="180,252 180,297 36,225 36,180 "/>
<polygon class="st5" points="180,297 324,225 324,180 180,252 "/>
<polygon class="st5" points="36,108 80.5,130.3 36,152.5 "/>
<polygon class="st5" points="180,35.5 180,80.5 87.5,126.8 42.5,104.3 "/>
<polygon class="st5" points="180,180 180,225 36,153 36,108 "/>
<polygon class="st5" points="180,225 324,153 324,108 180,180 "/>
<g>
	<rect x="342" y="107.5" class="st11" width="369" height="189"/>
	<path class="st26" d="M347.9,109.3h15.7c2.4,0,4.5,0.3,6.5,0.9c1.9,0.6,3.6,1.5,5,2.6c1.4,1.1,2.4,2.5,3.2,4.2
		c0.7,1.6,1.1,3.5,1.1,5.6v0.1c0,2.3-0.4,4.3-1.3,6s-2.1,3.1-3.6,4.3s-3.3,2-5.3,2.6c-2,0.6-4.1,0.9-6.4,0.9h-10.2v14.8h-4.7V109.3z
		 M363.1,132.2c1.7,0,3.3-0.2,4.7-0.7c1.4-0.4,2.6-1.1,3.7-1.9c1-0.8,1.8-1.8,2.3-2.9c0.5-1.1,0.8-2.4,0.8-3.8v-0.1
		c0-3-1-5.3-3.1-6.8c-2.1-1.5-4.8-2.3-8.2-2.3h-10.6v18.5H363.1z"/>
	<path class="st26" d="M388,109.3h18.1c2.6,0,4.9,0.4,6.9,1.1s3.7,1.8,5,3.1c1,1,1.8,2.3,2.4,3.7c0.6,1.4,0.8,2.9,0.8,4.6v0.1
		c0,1.8-0.3,3.3-0.8,4.7c-0.6,1.4-1.3,2.6-2.4,3.6c-1,1-2.2,1.9-3.6,2.5c-1.4,0.7-2.9,1.1-4.6,1.4l12.9,17.2h-5.8L404.8,135h-0.1
		h-11.9v16.3H388V109.3z M405.7,130.7c1.6,0,3-0.2,4.3-0.6c1.3-0.4,2.5-1,3.4-1.7s1.7-1.6,2.3-2.7c0.5-1.1,0.8-2.3,0.8-3.6V122
		c0-2.6-0.9-4.6-2.8-6.1c-1.9-1.5-4.5-2.2-7.9-2.2h-13v17H405.7z"/>
	<path class="st26" d="M450.9,152c-3.2,0-6.1-0.6-8.7-1.7c-2.6-1.2-4.9-2.7-6.8-4.7c-1.9-2-3.3-4.3-4.3-6.9c-1-2.6-1.5-5.4-1.5-8.3
		v-0.1c0-2.9,0.5-5.6,1.6-8.3c1-2.6,2.5-5,4.4-6.9c1.9-2,4.1-3.6,6.8-4.7c2.6-1.2,5.6-1.8,8.8-1.8s6.1,0.6,8.7,1.7
		c2.6,1.2,4.9,2.7,6.8,4.7c1.9,2,3.3,4.3,4.3,6.9c1,2.6,1.5,5.4,1.5,8.3c0,0,0,0.1,0,0.1c0,2.9-0.5,5.6-1.6,8.3
		c-1,2.6-2.5,5-4.4,6.9c-1.9,2-4.1,3.6-6.8,4.7C457,151.4,454.1,152,450.9,152z M451,147.6c2.4,0,4.6-0.5,6.6-1.3
		c2-0.9,3.8-2.1,5.2-3.7c1.4-1.6,2.6-3.4,3.4-5.5c0.8-2.1,1.2-4.3,1.2-6.7v-0.1c0-2.4-0.4-4.7-1.2-6.8s-2-3.9-3.4-5.5
		c-1.5-1.6-3.2-2.8-5.3-3.7c-2-0.9-4.2-1.4-6.6-1.4c-2.4,0-4.6,0.5-6.6,1.3c-2,0.9-3.8,2.1-5.2,3.7c-1.4,1.6-2.6,3.4-3.4,5.5
		c-0.8,2.1-1.2,4.3-1.2,6.7v0.1c0,2.4,0.4,4.7,1.2,6.8c0.8,2.1,2,3.9,3.4,5.5c1.5,1.6,3.2,2.8,5.3,3.7
		C446.4,147.2,448.6,147.6,451,147.6z"/>
	<path class="st26" d="M482.4,109.3h15.7c2.4,0,4.5,0.3,6.5,0.9c1.9,0.6,3.6,1.5,5,2.6c1.4,1.1,2.4,2.5,3.2,4.2
		c0.7,1.6,1.1,3.5,1.1,5.6v0.1c0,2.3-0.4,4.3-1.3,6s-2.1,3.1-3.6,4.3s-3.3,2-5.3,2.6c-2,0.6-4.1,0.9-6.4,0.9h-10.2v14.8h-4.7V109.3z
		 M497.5,132.2c1.7,0,3.3-0.2,4.7-0.7c1.4-0.4,2.6-1.1,3.7-1.9c1-0.8,1.8-1.8,2.3-2.9c0.5-1.1,0.8-2.4,0.8-3.8v-0.1
		c0-3-1-5.3-3.1-6.8c-2.1-1.5-4.8-2.3-8.2-2.3h-10.6v18.5H497.5z"/>
	<path class="st26" d="M522.5,109.3h30.4v4.3h-25.6V128h22.9v4.3h-22.9V147h25.9v4.3h-30.7V109.3z"/>
	<path class="st26" d="M562.7,109.3h18.1c2.6,0,4.9,0.4,6.9,1.1s3.7,1.8,5,3.1c1,1,1.8,2.3,2.4,3.7c0.6,1.4,0.8,2.9,0.8,4.6v0.1
		c0,1.8-0.3,3.3-0.8,4.7c-0.6,1.4-1.3,2.6-2.4,3.6c-1,1-2.2,1.9-3.6,2.5c-1.4,0.7-2.9,1.1-4.6,1.4l12.9,17.2h-5.8L579.4,135h-0.1
		h-11.9v16.3h-4.7V109.3z M580.4,130.7c1.6,0,3-0.2,4.3-0.6c1.3-0.4,2.5-1,3.4-1.7s1.7-1.6,2.3-2.7c0.5-1.1,0.8-2.3,0.8-3.6V122
		c0-2.6-0.9-4.6-2.8-6.1c-1.9-1.5-4.5-2.2-7.9-2.2h-13v17H580.4z"/>
	<path class="st26" d="M617.2,113.7h-14.1v-4.4H636v4.4h-14.1v37.6h-4.7V113.7z"/>
	<path class="st26" d="M658.1,134.7l-17.5-25.4h5.8l14.1,21l14.3-21h5.5l-17.5,25.3v16.7h-4.7V134.7z"/>
	<path class="st26" d="M344.7,181.3h5.2l12,35l11.5-35.1h3.9l11.5,35.1l12-35h5l-15,42.3h-4l-11.5-34.1l-11.6,34.1h-4L344.7,181.3z"
		/>
	<path class="st26" d="M414.4,181.3h30.4v4.3h-25.6V200H442v4.3h-22.9V219H445v4.3h-30.7V181.3z"/>
	<path class="st26" d="M454.6,181.3h17.8c2.4,0,4.5,0.3,6.4,1c1.9,0.7,3.4,1.6,4.6,2.7c1.8,1.9,2.7,4.1,2.7,6.7v0.1
		c0,1.4-0.2,2.6-0.6,3.6c-0.4,1.1-0.9,2-1.5,2.8s-1.3,1.4-2.1,2c-0.8,0.5-1.6,1-2.4,1.3c1.2,0.4,2.4,0.8,3.5,1.4
		c1.1,0.6,2,1.3,2.8,2.1c0.8,0.8,1.4,1.8,1.9,2.9c0.5,1.1,0.7,2.4,0.7,3.8v0.1c0,1.8-0.4,3.4-1.1,4.8c-0.7,1.4-1.7,2.6-3.1,3.6
		c-1.3,1-2.9,1.7-4.8,2.3c-1.9,0.5-4,0.8-6.2,0.8h-18.6V181.3z M471.7,200c2.9,0,5.2-0.6,7-1.9c1.8-1.3,2.7-3.1,2.7-5.6v-0.1
		c0-2.1-0.8-3.7-2.4-5c-1.6-1.2-3.9-1.9-6.9-1.9h-12.7V200H471.7z M473.4,219c3.2,0,5.7-0.7,7.5-2c1.8-1.3,2.8-3.2,2.8-5.5v-0.1
		c0-2.3-0.9-4-2.8-5.3c-1.9-1.3-4.6-1.9-8.3-1.9h-13.2V219H473.4z"/>
	<path class="st26" d="M347.9,253.3h17.8c2.4,0,4.5,0.3,6.4,1c1.9,0.7,3.4,1.6,4.6,2.7c1.8,1.9,2.7,4.1,2.7,6.7v0.1
		c0,1.4-0.2,2.6-0.6,3.6c-0.4,1.1-0.9,2-1.5,2.8s-1.3,1.4-2.1,2c-0.8,0.5-1.6,1-2.4,1.3c1.2,0.4,2.4,0.8,3.5,1.4
		c1.1,0.6,2,1.3,2.8,2.1c0.8,0.8,1.4,1.8,1.9,2.9c0.5,1.1,0.7,2.4,0.7,3.8v0.1c0,1.8-0.4,3.4-1.1,4.8c-0.7,1.4-1.7,2.6-3.1,3.6
		c-1.3,1-2.9,1.7-4.8,2.3c-1.9,0.5-4,0.8-6.2,0.8h-18.6V253.3z M365.1,272c2.9,0,5.2-0.6,7-1.9c1.8-1.3,2.7-3.1,2.7-5.6v-0.1
		c0-2.1-0.8-3.7-2.4-5c-1.6-1.2-3.9-1.9-6.9-1.9h-12.7V272H365.1z M366.7,291c3.2,0,5.7-0.7,7.5-2c1.8-1.3,2.8-3.2,2.8-5.5v-0.1
		c0-2.3-0.9-4-2.8-5.3c-1.9-1.3-4.6-1.9-8.3-1.9h-13.2V291H366.7z"/>
	<path class="st26" d="M408.1,296c-2.6,0-5-0.4-7.1-1.2c-2.1-0.8-4-1.9-5.5-3.5c-1.5-1.5-2.7-3.5-3.6-5.7c-0.8-2.3-1.3-4.9-1.3-7.9
		v-24.4h4.7v24.1c0,4.6,1.1,8.1,3.4,10.5c2.3,2.4,5.4,3.7,9.5,3.7c3.9,0,7-1.2,9.2-3.5c2.3-2.3,3.4-5.8,3.4-10.4v-24.4h4.7v24.1
		c0,3.1-0.4,5.8-1.3,8.1c-0.8,2.3-2,4.3-3.6,5.8c-1.5,1.6-3.4,2.7-5.5,3.5C413.1,295.6,410.7,296,408.1,296z"/>
	<path class="st26" d="M437.2,253.3h4.7v42h-4.7V253.3z"/>
	<path class="st26" d="M454.3,253.3h4.7v37.6h23.6v4.4h-28.4V253.3z"/>
	<path class="st26" d="M491.4,253.3H506c3.3,0,6.3,0.5,9,1.6c2.7,1.1,5.1,2.5,7.1,4.4c2,1.9,3.5,4.1,4.6,6.6
		c1.1,2.5,1.6,5.3,1.6,8.3v0.1c0,3-0.5,5.7-1.6,8.3s-2.6,4.8-4.6,6.7c-2,1.9-4.3,3.4-7.1,4.4c-2.7,1.1-5.8,1.6-9,1.6h-14.6V253.3z
		 M506,290.9c2.6,0,5-0.4,7.2-1.3c2.2-0.8,4-2,5.5-3.5c1.5-1.5,2.7-3.2,3.5-5.3c0.8-2,1.2-4.2,1.2-6.5v-0.1c0-2.3-0.4-4.5-1.2-6.5
		c-0.8-2-2-3.8-3.5-5.3s-3.3-2.7-5.5-3.5c-2.2-0.9-4.6-1.3-7.2-1.3h-9.8v33.2H506z"/>
	<path class="st26" d="M538.3,253.3h30.4v4.3h-25.6V272H566v4.3h-22.9V291H569v4.3h-30.7V253.3z"/>
	<path class="st26" d="M578.5,253.3h18.1c2.6,0,4.9,0.4,6.9,1.1s3.7,1.8,5,3.1c1,1,1.8,2.3,2.4,3.7c0.6,1.4,0.8,2.9,0.8,4.6v0.1
		c0,1.8-0.3,3.3-0.8,4.7c-0.6,1.4-1.3,2.6-2.4,3.6c-1,1-2.2,1.9-3.6,2.5c-1.4,0.7-2.9,1.1-4.6,1.4l12.9,17.2h-5.8L595.3,279h-0.1
		h-11.9v16.3h-4.7V253.3z M596.2,274.7c1.6,0,3-0.2,4.3-0.6c1.3-0.4,2.5-1,3.4-1.7s1.7-1.6,2.3-2.7c0.5-1.1,0.8-2.3,0.8-3.6V266
		c0-2.6-0.9-4.6-2.8-6.1c-1.9-1.5-4.5-2.2-7.9-2.2h-13v17H596.2z"/>
</g>
</svg>
