<?xml version="1.0" standalone="no"?>
<!DOCTYPE svg PUBLIC "-//W3C//DTD SVG 20010904//EN"
 "http://www.w3.org/TR/2001/REC-SVG-20010904/DTD/svg10.dtd">
<svg version="1.0" xmlns="http://www.w3.org/2000/svg"
 width="290.000000pt" height="290.000000pt" viewBox="0 0 290.000000 290.000000"
 preserveAspectRatio="xMidYMid meet">
<metadata>
Created by potrace 1.11, written by Peter Selinger 2001-2013
</metadata>
<g transform="translate(0.000000,290.000000) scale(0.100000,-0.100000)"
fill="#000000" stroke="none">
<path d="M0 1450 l0 -1450 1450 0 1450 0 0 1450 0 1450 -1450 0 -1450 0 0
-1450z m200 975 c0 -3 101 -390 225 -859 124 -470 225 -858 226 -863 1 -21 31
88 240 880 l223 847 48 0 c33 0 46 -4 43 -12 -2 -7 -113 -425 -245 -928 -133
-503 -246 -930 -251 -947 -10 -31 -14 -33 -54 -33 -36 0 -45 4 -50 21 -4 12
-118 444 -254 960 l-248 939 49 0 c26 0 48 -2 48 -5z m170 3 c0 -2 78 -301
174 -666 l174 -663 -18 -70 c-20 -76 -27 -90 -34 -68 -9 24 -386 1453 -386
1461 0 7 90 12 90 6z m174 -15 c3 -10 62 -236 132 -503 l127 -484 -18 -74
c-10 -40 -22 -75 -27 -78 -4 -3 -8 -3 -8 0 0 3 -67 262 -150 576 -82 314 -150
573 -150 576 0 2 20 4 44 4 34 0 46 -4 50 -17z m258 -322 l88 -334 -21 -79
c-12 -44 -25 -76 -29 -71 -4 4 -53 184 -109 398 -56 215 -104 398 -107 408 -5
16 0 18 42 15 l48 -3 88 -334z m572 317 c-4 -13 -118 -444 -253 -958 l-246
-935 -49 -3 c-42 -3 -47 -1 -42 15 8 25 56 209 291 1098 113 429 208 786 210
793 3 7 23 12 50 12 44 0 46 -1 39 -22z m176 20 c0 -2 -83 -316 -184 -698
-100 -382 -214 -813 -252 -957 l-69 -263 -42 0 c-32 0 -43 4 -43 15 0 12 480
1848 495 1893 4 10 95 19 95 10z m285 -380 c60 -209 111 -375 114 -367 3 8 48
178 101 379 l97 365 46 3 c26 2 47 1 47 -2 0 -7 -466 -1772 -489 -1851 l-17
-60 -45 -3 -46 -3 -109 376 c-60 206 -111 375 -114 375 -3 0 -36 -118 -74
-262 -38 -145 -82 -314 -99 -376 l-30 -112 -43 0 c-29 0 -44 4 -44 13 0 6 12
55 26 107 14 52 124 471 245 930 121 459 222 843 225 853 4 13 16 17 52 17
l47 0 110 -382z m575 376 c0 -4 -112 -433 -250 -954 -137 -521 -250 -950 -250
-953 0 -4 -20 -7 -45 -7 -25 0 -45 5 -45 10 0 6 108 421 241 923 132 502 245
929 250 950 9 36 11 37 54 37 25 0 45 -3 45 -6z m170 -3 c0 -6 -369 -1415
-491 -1873 -9 -37 -11 -38 -55 -38 -45 0 -46 1 -39 28 3 15 116 445 251 955
134 511 244 930 244 933 0 2 20 4 45 4 25 0 45 -4 45 -9z m153 -88 c-15 -54
-128 -485 -253 -958 l-226 -860 -49 -3 c-42 -3 -47 -1 -43 15 3 10 117 442
254 961 l248 942 47 0 47 0 -25 -97z"/>
<path d="M1657 2177 l-18 -72 108 -377 c59 -208 111 -378 114 -378 3 0 13 30
22 68 l16 67 -106 375 c-58 206 -109 378 -112 382 -3 4 -14 -25 -24 -65z"/>
<path d="M1575 1863 c-10 -32 -17 -69 -17 -83 0 -22 207 -748 215 -757 2 -1
12 30 22 70 l18 74 -107 374 c-60 206 -109 375 -111 377 -2 2 -11 -23 -20 -55z"/>
<path d="M1486 1524 l-17 -79 109 -380 109 -380 12 45 c7 25 16 59 20 76 7 25
-12 101 -95 388 -56 197 -107 369 -111 383 -8 23 -11 16 -27 -53z"/>
</g>
</svg>
